HIERARCHY
ROOT pelvis
{
  OFFSET 0 100 0
  CHANNELS 6 Xposition Yposition Zposition Zrotation Xrotation Yrotation
  JOINT pelvis_right_femur
  {
    OFFSET -10.78128 -3.44521 -0.5502486
    CHANNELS 3 Zrotation Xrotation Yrotation
    JOINT right_femur_tibia
    {
      OFFSET -0.8047443 -44.0398 -0.1307829
      CHANNELS 3 Zrotation Xrotation Yrotation
      JOINT right_tibia_foot
      {
        OFFSET 3.006224 -47.83518 -5
        CHANNELS 3 Zrotation Xrotation Yrotation
        End Site
        {
          OFFSET 0 -5 15
        }
      }
    }
  }
  JOINT pelvis_left_femur
  {
    OFFSET 10.78128 -3.44521 -0.5502486
    CHANNELS 3 Zrotation Xrotation Yrotation
    JOINT left_femur_tibia
    {
      OFFSET 0.8047443 -44.0398 -0.1307829
      CHANNELS 3 Zrotation Xrotation Yrotation
      JOINT left_tibia_foot
      {
        OFFSET -4.370144 -48.10324 -4.275266
        CHANNELS 3 Zrotation Xrotation Yrotation
        End Site
        {
          OFFSET 0 -5 15
        }
      }
    }
  }
  JOINT pelvis_spine1
  {
    OFFSET 0 6.468898 -3.129235
    CHANNELS 3 Zrotation Xrotation Yrotation
    JOINT spine1
    {
      OFFSET 0 23.15396 4.99043
      CHANNELS 3 Zrotation Xrotation Yrotation
      JOINT spine2
      {
        OFFSET 0 20.79997 -5.064912
        CHANNELS 3 Zrotation Xrotation Yrotation
        JOINT neck
        {
          OFFSET 0 14.38658 9.616178
          CHANNELS 3 Zrotation Xrotation Yrotation
          End Site
          {
            OFFSET 0 20 0
          }
        }
      }
      JOINT right_manubrium
      {
        OFFSET -5.722621 16.35077 3.967754
        CHANNELS 3 Zrotation Xrotation Yrotation
        JOINT right_clavicle
        {
          OFFSET -13.16364 1.694482 -4.693211
          CHANNELS 3 Zrotation Xrotation Yrotation
          JOINT right_humerus
          {
            OFFSET -28.5034 -0.3100689 -2.792744
            CHANNELS 3 Zrotation Xrotation Yrotation
            JOINT right_radius
            {
              OFFSET -25.15693 0.02248979 -1.271978
              CHANNELS 3 Zrotation Xrotation Yrotation
              End Site
              {
                OFFSET -15 0 0
              }
            }
          }
        }
      }
      JOINT left_manubrium
      {
        OFFSET 5.722621 16.35077 3.967754
        CHANNELS 3 Zrotation Xrotation Yrotation
        JOINT left_clavicle
        {
          OFFSET 13.16364 1.694482 -4.693211
          CHANNELS 3 Zrotation Xrotation Yrotation
          JOINT left_humerus
          {
            OFFSET 29.39168 -1.063119 -2.237045
            CHANNELS 3 Zrotation Xrotation Yrotation
            JOINT left_radius
            {
              OFFSET 24.59957 -0.9528479 0.9047498
              CHANNELS 3 Zrotation Xrotation Yrotation
              End Site
              {
                OFFSET 15 -0 -0
              }
            }
          }
        }
      }
    }
  }
}
MOTION
Frames: 21
Frame Time: 0.0416666666667
-389.2059 109.5475 2531.682 -4.165829 -9.038829 -30.41258 -0.6428346 -6.689646 -5.123141 -0 37.69176 -0 -14.68903 5.369076 2.109926 -5.261428 8.780168 -15.51282 -0 9.593401 -0 -2.00887 -16.55582 18.76252 0.9924847 -1.514615 6.268485 0.2396197 16.22287 -7.179058 0.564741 22.09564 3.768986 4.301178 -17.26661 2.392302 -1.95571 -23.07631 13.20948 93.02438 21.00968 -18.78585 -0 0 15.88421 -22.84723 10.41232 6.811386 4.615132 -27.4822 -11.1666 -89.14368 7.381985 21.11359 0 0 -15.90812 14.94928 14.50524 -9.121465
-390.8343 109.3419 2535.073 -3.4751 -7.202429 -30.06942 0.0701941 -13.13737 -4.086123 -0 33.07266 -0 -12.96856 1.7172 0.8313765 -5.188103 11.50572 -16.18149 -0 7.978491 -0 -1.801398 -18.6391 18.23093 -0.3001799 -1.329825 5.554149 -0.01693961 14.77043 -6.926816 0.1625288 21.93267 5.384774 5.857081 -17.14664 2.601121 0.08304154 -21.0979 12.7774 90.78214 24.58305 -18.1146 -0 0 16.0451 -22.46105 9.119136 6.503946 6.523115 -27.34212 -9.620096 -88.65007 6.966294 18.08603 0 0 -15.80627 16.09201 13.66865 -10.64325
-392.3506 108.8742 2538.184 -2.456282 -5.035066 -29.82055 0.9998411 -18.57096 -2.567916 -0 28.34166 -0 -10.98979 -1.638592 -0.2400056 -5.322663 13.03005 -16.71064 -0 6.937115 -0 -0.6695696 -20.20846 18.2125 -1.812327 -1.344786 4.745825 0.00187786 13.02749 -6.771901 -0.1451811 21.50443 7.230453 7.060092 -18.02187 3.59907 2.351958 -19.59119 12.26543 88.02756 28.22373 -16.8408 -0 0 17.07353 -21.33725 8.243198 6.476762 8.361066 -26.49161 -7.117174 -88.83849 7.726483 16.10113 0 0 -14.4663 16.74466 13.00318 -11.19262
-393.8213 108.2631 2541.161 -1.345973 -2.826152 -29.64801 2.110958 -23.09209 -0.8868222 -0 24.47003 -0 -9.354294 -3.858805 -0.8746011 -5.616265 13.6327 -17.0027 -0 6.627431 -0 1.354602 -21.24852 18.72048 -3.095935 -1.583613 3.994948 0.331604 11.39752 -6.828339 -0.2377197 20.93777 8.82789 7.664983 -19.68323 5.183621 4.344892 -18.63949 11.8197 85.59256 31.1137 -15.78628 -0 0 18.20265 -19.55547 8.011833 6.468103 9.733502 -25.29917 -4.388478 -89.46967 9.536277 15.20477 0 0 -12.90992 16.98953 12.84258 -10.86656
-395.3109 107.5967 2544.137 -0.3793304 -0.8420958 -29.50503 3.295131 -26.85359 0.5809814 -0 21.54306 -0 -8.381628 -4.697601 -1.046497 -5.93877 13.70146 -17.02532 -0 6.995031 -0 3.739755 -21.89131 19.46825 -3.84618 -1.910598 3.43083 0.8613143 10.16725 -7.077419 -0.115096 20.40104 9.830897 7.698292 -21.65212 6.868455 5.676382 -18.14779 11.52323 84.1359 32.98415 -15.49853 -0 0 18.76409 -17.49482 8.299151 6.303359 10.46338 -24.17555 -2.118349 -90.17508 11.79062 15.04863 0 0 -12.0425 16.94524 13.14351 -10.06504
-396.8804 106.919 2547.23 0.2995604 0.7363223 -29.32904 4.392634 -29.92826 1.528018 -0 19.21335 -0 -8.117142 -4.30552 -0.828322 -6.172022 13.61012 -16.78367 -0 7.928286 -0 5.797328 -22.30941 20.04029 -4.047045 -2.158059 3.087195 1.436012 9.412437 -7.427262 0.1236741 19.99056 10.21244 7.366517 -23.47883 8.23013 6.28519 -17.9396 11.38415 83.75811 34.00428 -15.96343 -0 0 18.54596 -15.60907 8.816168 6.016274 10.63507 -23.3532 -0.601395 -90.65567 13.859 15.16257 0 0 -12.13727 16.70786 13.60941 -9.174787
-398.5849 106.252 2550.546 0.6442227 1.836469 -29.06732 5.27032 -32.2934 1.831713 -0 17.15961 -0 -8.410704 -3.036247 -0.3528709 -6.245168 13.63169 -16.29603 -0 9.370156 -0 6.968999 -22.60531 20.0818 -3.873763 -2.246573 2.916025 1.948817 9.05214 -7.793745 0.3730207 19.71431 10.16184 6.88805 -24.91811 9.10794 6.348287 -17.86129 11.36434 84.14507 34.45184 -16.85258 -0 0 17.7175 -14.18795 9.339522 5.742106 10.45573 -22.86291 0.2207817 -90.78251 15.4117 15.20739 0 0 -12.98573 16.34648 13.969 -8.390657
-400.4764 105.621 2554.178 0.6715703 2.470474 -28.69501 5.878474 -33.85376 1.566947 -0 15.26896 -0 -9.013374 -1.294333 0.2009978 -6.129143 13.91161 -15.57529 -0 11.37631 -0 6.925741 -22.73602 19.37362 -3.526073 -2.191503 2.846697 2.35904 8.952796 -8.130688 0.5750782 19.53884 9.898365 6.404902 -25.9274 9.557517 6.092667 -17.82411 11.41259 84.91612 34.54212 -17.85916 -0 0 16.56901 -13.29163 9.772667 5.574375 10.11689 -22.62976 0.5527858 -90.58517 16.42303 15.05534 0 0 -14.24865 15.90995 14.1085 -7.741159
-402.6066 105.0751 2558.21 0.427035 2.70324 -28.22394 6.272158 -34.46994 0.9706569 -0 13.63387 -0 -9.643966 0.5421955 0.6194325 -5.819346 14.46852 -14.62425 -0 14.15089 -0 5.5611 -22.48649 17.84061 -3.142746 -2.051243 2.827718 2.667775 8.996913 -8.420105 0.7173355 19.42961 9.573171 5.979928 -26.57437 9.716708 5.694627 -17.79365 11.48519 85.79856 34.41307 -18.81001 -0 0 15.34816 -12.82305 10.0968 5.525457 9.740236 -22.55762 0.5938843 -90.1814 17.02509 14.73953 0 0 -15.63888 15.43346 14.04374 -7.178908
-405.0253 104.7006 2562.713 -0.03490359 2.63963 -27.70876 6.606875 -33.97995 0.4172777 -0 12.51167 -0 -10.0273 2.110527 0.6731478 -5.322687 15.16366 -13.46156 -0 18.06769 -0 2.994392 -21.48974 15.58343 -2.796147 -1.885204 2.83739 2.892318 9.105876 -8.654616 0.8114102 19.3663 9.258566 5.624263 -26.95647 9.715215 5.269269 -17.76844 11.5546 86.63113 34.15905 -19.62585 -0 0 14.22879 -12.62134 10.31798 5.556349 9.379395 -22.56199 0.4865291 -89.71626 17.38607 14.38161 0 0 -16.93377 14.94572 13.85102 -6.644748
-407.7607 104.6279 2567.715 -0.6523255 2.420436 -27.25072 7.079367 -32.22244 0.3551268 -0 12.24838 -0 -9.952965 3.003716 0.1811368 -4.655987 15.61137 -12.17402 -0 23.63862 -0 -0.3814715 -19.32714 12.93722 -2.51333 -1.736208 2.879758 3.051732 9.23988 -8.826325 0.8769479 19.34452 8.968763 5.321333 -27.16222 9.643143 4.88769 -17.76769 11.61062 87.32136 33.85696 -20.26189 -0 0 13.33313 -12.52173 10.44083 5.612142 9.036389 -22.57324 0.316847 -89.33247 17.65178 14.14733 0 0 -17.9367 14.47418 13.61991 -6.095989
-410.7788 105.012 2573.154 -1.330786 2.186425 -26.98703 7.764975 -29.09237 1.094349 -0 13.04327 -0 -9.405864 2.773521 -0.8352897 -3.873389 15.07572 -10.95447 -0 31.32954 -0 -3.864921 -15.78709 10.46203 -2.294743 -1.627324 2.97782 3.158717 9.391186 -8.92222 0.9332698 19.37511 8.681832 5.040744 -27.25714 9.549891 4.5839 -17.82771 11.65558 87.82218 33.56886 -20.67826 -0 0 12.74998 -12.38981 10.45745 5.642765 8.677992 -22.5352 0.1246037 -89.15445 17.92607 14.21777 0 0 -18.46641 14.04659 13.43001 -5.514375
-413.9414 105.9611 2578.831 -1.896412 1.951447 -27.04401 8.400938 -24.65203 2.441606 -0 14.4928 -0 -8.704812 1.184489 -1.971642 -3.143001 12.56904 -10.03346 -0 41.07971 -0 -6.566199 -11.29532 8.747068 -2.124752 -1.561672 3.166159 3.211056 9.57647 -8.923859 0.9942882 19.4857 8.35761 4.745441 -27.27341 9.450869 4.336424 -18.00248 11.69345 88.14497 33.31885 -20.84189 -0 0 12.52504 -12.15917 10.34124 5.615562 8.252033 -22.41279 -0.09490736 -89.25791 18.25966 14.74442 0 0 -18.40764 13.68963 13.3342 -4.911446
-417.0359 107.4218 2584.443 -2.126095 1.425297 -27.45404 8.421309 -19.1969 3.589114 -0 15.37879 -0 -8.308718 -1.305934 -2.598474 -2.761931 7.513436 -9.452065 -0 51.59621 -0 -7.835841 -7.141844 8.13368 -1.975474 -1.517197 3.481039 3.182579 9.831172 -8.81174 1.062695 19.71854 7.95537 4.398639 -27.19759 9.331309 4.032793 -18.36674 11.71934 88.39479 33.0584 -20.74056 -0 0 12.63217 -11.892 10.05388 5.534304 7.705471 -22.20936 -0.3923851 -89.61502 18.62336 15.77741 0 0 -17.80265 13.42568 13.33318 -4.344313
-419.9223 109.1258 2589.749 -1.988894 0.16531 -28.10128 7.544215 -13.09924 3.871356 -0 14.62515 -0 -8.195117 -3.655445 -2.539601 -2.816137 0.6194357 -8.92644 -0 60.16467 -0 -7.82488 -4.726733 8.708575 -1.810374 -1.444674 3.946003 3.029669 10.20115 -8.575949 1.125607 20.10729 7.452963 3.975592 -26.97805 9.151198 3.478327 -19.01491 11.72461 88.7522 32.66596 -20.36912 -0 0 12.98871 -11.81191 9.588166 5.464032 7.002966 -21.9716 -0.8388924 -90.07547 18.88341 17.2314 0 0 -16.85807 13.26419 13.35911 -3.922856
-422.6225 110.7003 2594.687 -1.798078 -1.750965 -28.79359 6.273007 -6.756928 3.557025 -0 12.57672 -0 -7.896187 -5.382662 -2.250093 -2.807927 -6.542865 -8.113273 -0 63.8777 -0 -7.300333 -4.216557 10.33725 -1.59776 -1.304044 4.55473 2.731537 10.71108 -8.228303 1.163101 20.63445 6.856656 3.470645 -26.5763 8.872285 2.517463 -20.03898 11.71361 89.32952 32.00552 -19.68551 -0 0 13.5708 -12.17466 9.027106 5.515193 6.144567 -21.75244 -1.457885 -90.489 18.871 18.99365 0 0 -15.76087 13.1781 13.33591 -3.738641
-425.2097 111.8456 2599.333 -1.850701 -3.560926 -29.42469 5.360117 -0.8237812 3.165648 -0 10.38193 -0 -7.437093 -6.962319 -2.0216 -2.127619 -12.92795 -6.934301 -0 61.56848 -0 -6.655239 -4.612954 12.43984 -1.320395 -1.125184 5.265587 2.331061 11.32729 -7.807276 1.166554 21.21473 6.187257 2.887382 -26.01156 8.490869 1.168663 -21.48611 11.70217 90.04761 30.98999 -18.62926 -0 0 14.49252 -13.04168 8.54944 5.772462 5.174108 -21.57384 -2.192607 -90.87438 18.52643 21.07926 0 0 -14.52528 13.07954 13.29093 -3.739913
-427.7178 112.4171 2603.821 -2.14982 -4.606847 -29.99966 5.10593 4.057941 2.767278 -0 8.76005 -0 -7.287824 -8.858826 -1.768144 -0.6774897 -18.15255 -5.506374 -0 54.283 -0 -5.754849 -4.970508 14.30936 -0.964531 -1.002258 6.017004 1.923163 11.97828 -7.375995 1.140018 21.72082 5.459078 2.235229 -25.32689 8.019028 -0.3764003 -23.32027 11.70727 90.70405 29.62076 -17.21444 -0 0 15.88552 -14.25907 8.383762 6.265828 4.165608 -21.45271 -2.964688 -91.3753 17.90202 23.58331 0 0 -13.11217 12.8408 13.34426 -3.727327
-430.1604 112.4081 2608.284 -2.588718 -4.822416 -30.55536 5.389835 7.696455 2.310107 -0 7.938996 -0 -7.581058 -11.05511 -1.471892 1.204231 -21.94301 -4.010551 -0 44.13118 -0 -4.516298 -4.905581 15.64239 -0.5223581 -1.023935 6.746847 1.605274 12.60567 -7.009291 1.087049 22.02393 4.685398 1.549682 -24.53407 7.451661 -1.834657 -25.39759 11.74924 91.09995 28.00969 -15.57375 -0 0 17.73 -15.61185 8.730818 6.994784 3.203883 -21.43243 -3.729613 -92.07041 17.05269 26.48233 0 0 -11.60428 12.3565 13.5735 -3.477655
-432.5534 111.916 2612.837 -3.088723 -4.562492 -31.13245 5.88072 10.35473 1.845179 -0 7.959869 -0 -8.056509 -13.24261 -1.235196 2.963289 -24.11165 -2.780067 -0 33.40967 -0 -3.134807 -4.455598 16.5238 -0.01721136 -1.21287 7.400876 1.432405 13.17544 -6.765287 1.00809 22.04822 3.903361 0.9010478 -23.63385 6.78967 -2.942267 -27.47878 11.84798 91.12438 26.34669 -13.91854 -0 0 19.81236 -16.92103 9.636048 7.921116 2.369114 -21.55095 -4.462542 -92.87981 16.02764 29.523 0 0 -10.21267 11.60175 13.92625 -2.87045
-434.9199 111.0978 2617.573 -3.58869 -4.31421 -31.76806 6.179708 12.52045 1.436172 -0 8.81287 -0 -8.403412 -14.96905 -1.10762 4.030024 -24.74148 -2.252586 -0 24.11266 -0 -1.968684 -3.887797 17.20379 0.4870261 -1.50855 7.928964 1.398993 13.6622 -6.657224 0.9138806 21.82727 3.181688 0.3640773 -22.70007 6.092579 -3.590931 -29.29398 12.00337 90.83104 24.81298 -12.47111 -0 0 21.79655 -18.0586 10.89583 8.934269 1.715539 -21.78216 -5.12274 -93.62654 14.95094 32.2807 0 0 -9.145636 10.66769 14.2658 -1.974083
